<?xml version="1.0" standalone="no"?><!DOCTYPE svg PUBLIC "-//W3C//DTD SVG 1.1//EN" "http://www.w3.org/Graphics/SVG/1.1/DTD/svg11.dtd"><svg t="1589808861557" class="icon" viewBox="0 0 1024 1024" version="1.1" xmlns="http://www.w3.org/2000/svg" p-id="1930" xmlns:xlink="http://www.w3.org/1999/xlink" width="200" height="200"><defs><style type="text/css"></style></defs><path d="M720.025 250.304h-78.128v-60H780.54l2.324-2.304 2.284 2.304h15.75c16.568 0 30 13.431 30 30v159h-60v-94.947L636.157 417.95a30 30 0 0 1-31.155 6.97L426.11 361.442 238.876 489.97l-33.957-49.466 199.836-137.18a30 30 0 0 1 27.01-3.54l175.536 62.285 112.724-111.765zM450.53 775.618h127.213V546.556h60v229.062h133.302V462.184h60v343.434c0 16.569-13.431 30-30 30H222c-16.569 0-30-13.431-30-30V614.014h60v161.604h138.53V465.617h60v310.001z" p-id="1931"></path></svg>